<svg xmlns="http://www.w3.org/2000/svg" class="svg-icon" style="width: 1em; height: 1em;vertical-align: middle;fill: currentColor;overflow: hidden;" viewBox="0 0 1024 1024" version="1.1"><path d="M512 960c247.424 0 448-200.576 448-448S759.424 64 512 64 64 264.576 64 512s200.576 448 448 448z m0 64C229.216 1024 0 794.784 0 512S229.216 0 512 0s512 229.216 512 512-229.216 512-512 512z m-160-650.368h77.632c3.36-49.504 36.736-80.64 88.48-80.64 51.392 0 84.768 31.136 84.768 73.504 0 38.624-16.128 60.384-61.504 87.744-51.36 30.752-74.24 64.512-72.384 117.376l0.384 30.016h77.632v-22.88c0-38.624 13.856-58.496 62.24-87.008 49.504-29.632 78.752-70.496 78.752-128.64C688 282.88 621.248 224 522.24 224c-108.736 0-166.88 64.512-170.24 149.632z m156.736 401.6c28.16 0 49.504-20.992 49.504-48.352 0-27.392-21.376-48.384-49.504-48.384-27.36 0-49.12 20.992-49.12 48.384 0 27.36 21.76 48.384 49.12 48.384z" fill="#ffffff"/></svg>